<svg width="214" height="37" viewBox="0 0 214 37" fill="none" xmlns="http://www.w3.org/2000/svg">
<path d="M132.809 8.86076V31.1945L128.92 28.1315L114.919 17.0604V31.1945H111.03V8.92457L114.919 11.9875L128.92 23.0586V8.82886L132.809 8.86076Z" stroke="white" strokeWidth="0.5" strokeMiterlimit="10"/>
<path d="M135.921 31.1625V8.82886H139.81V31.1625H135.921Z" stroke="white" strokeWidth="0.5" strokeMiterlimit="10"/>
<path d="M164.702 8.86076V31.1945L160.813 28.1315L146.812 17.0604V31.1945H142.922V8.92457L146.812 11.9875L160.813 23.0586V8.82886L164.702 8.86076Z" stroke="white" strokeWidth="0.5" strokeMiterlimit="10"/>
<path d="M189.591 8.82886V25.1324C189.591 28.4506 186.947 31.1306 183.711 31.1306H173.692C170.456 31.1306 167.812 28.4506 167.812 25.1324V20.9529H171.701V25.1324C171.701 26.2491 172.603 27.1744 173.692 27.1744H183.711C184.8 27.1744 185.702 26.2491 185.702 25.1324V8.82886H189.591Z" stroke="white" strokeWidth="0.5" strokeMiterlimit="10"/>
<path d="M33.4572 29.0447C32.082 28.2037 30.8462 27.2619 29.4697 26.6582C28.1268 26.0686 26.6408 25.8236 25.1063 25.396C29.6203 17.3751 34.1654 9.29792 38.8362 1C43.4896 9.26474 48.0422 17.3521 52.6956 25.6156C49.349 25.7087 46.7217 27.0794 44.3857 29.1315C44.9569 30.215 45.4821 31.2526 46.0571 32.2595C46.1654 32.4497 46.4604 32.5683 46.6918 32.6347C47.105 32.7534 47.5381 32.7993 47.96 32.8887C49.5269 33.2205 49.5244 33.2218 49.96 31.5997C50.143 30.9195 50.2898 30.2954 49.96 29.559C49.5406 28.621 50.0758 27.5401 50.9744 27.1304C51.8505 26.7297 52.8748 27.0513 53.3963 27.8885C53.9289 28.7435 53.7049 29.8079 52.9507 30.52C52.5997 30.8506 52.2874 31.3087 52.1442 31.7707C51.731 33.1107 51.4124 34.4814 51.0316 35.9312C42.876 33.5638 34.7889 33.5804 26.647 35.9299C26.2488 34.4061 25.9053 32.9818 25.4896 31.5793C25.3751 31.1939 25.1038 30.8059 24.8014 30.5404C23.9551 29.7964 23.7398 28.7818 24.316 27.8655C24.8474 27.0194 25.8605 26.7373 26.7391 27.1917C27.6974 27.6868 28.1144 28.7078 27.6775 29.7262C27.3664 30.4524 27.5556 31.1798 27.8107 31.8881C27.8704 32.0553 27.9327 32.2212 27.9874 32.3897C28.0297 32.5186 28.0596 32.6513 28.0945 32.7828C28.1206 32.8823 28.1343 32.9704 28.2239 33.0291C28.3546 33.1146 28.5537 33.1375 28.7055 33.112C29.4983 32.9767 30.2886 32.8134 31.0689 32.613C31.293 32.5556 31.5456 32.3807 31.6651 32.1829C31.9526 31.7095 32.1492 31.1798 32.4205 30.6949C32.6894 30.2112 33.0055 29.7556 33.4572 29.0447ZM49.1797 23.7842C45.7435 17.6826 42.3235 11.6117 38.8362 5.41824C35.3278 11.6538 31.9177 17.7158 28.5064 23.7778C30.1243 24.6916 30.1206 24.6903 30.937 23.2418C33.3938 18.8797 35.853 14.5189 38.3135 10.1594C38.4616 9.89774 38.6333 9.65143 38.8561 9.30047C39.1038 9.71524 39.2718 9.9858 39.4274 10.2627C41.858 14.5725 44.2849 18.8848 46.7155 23.1933C47.4921 24.5703 47.4958 24.5691 48.9233 23.9794C48.9731 23.9578 49.0129 23.9118 49.1797 23.7842ZM34.8748 27.5107C35.9812 26.708 37.0702 25.9486 38.1218 25.1395C38.6458 24.7375 39.0739 24.7618 39.5792 25.1574C40.4691 25.8542 41.3801 26.5217 42.3035 27.17C42.5002 27.3078 42.876 27.4507 43.0142 27.355C43.863 26.7705 44.6669 26.1171 45.5269 25.4547C44.2488 23.2112 42.9968 21.0135 41.69 18.7189C40.6931 19.8139 39.7858 20.8119 38.8399 21.8495C37.8493 20.7634 36.9544 19.7807 35.98 18.7125C34.6632 21.0365 33.4037 23.2571 32.1455 25.4777C33.1312 26.2103 34.0086 26.865 34.8748 27.5107Z" stroke="white" strokeWidth="0.5" strokeMiterlimit="10"/>
<path d="M36.1666 23.0342L36.1669 23.0344C36.4358 23.209 36.5255 23.575 36.3664 23.8648C36.361 23.8742 36.3568 23.8826 36.3538 23.889C36.3515 23.8937 36.3493 23.8985 36.348 23.9014C36.1679 24.1863 35.8038 24.2655 35.5282 24.0865L35.5281 24.0865C35.2593 23.912 35.1696 23.546 35.3286 23.2563C35.3334 23.2479 35.3372 23.2404 35.3401 23.2345C35.3431 23.2284 35.3458 23.2227 35.3472 23.2197L35.3474 23.2191L35.3478 23.2182C35.5284 22.9343 35.8929 22.8559 36.1666 23.0342Z" fill="white" stroke="white" strokeWidth="0.5"/>
<path d="M42.1666 23.0342L42.1669 23.0344C42.4358 23.209 42.5255 23.575 42.3664 23.8648C42.361 23.8742 42.3568 23.8826 42.3538 23.889C42.3515 23.8937 42.3493 23.8985 42.348 23.9014C42.1679 24.1863 41.8038 24.2655 41.5282 24.0865L41.5281 24.0865C41.2593 23.912 41.1696 23.546 41.3286 23.2563C41.3334 23.2479 41.3372 23.2404 41.3401 23.2345C41.3431 23.2284 41.3458 23.2227 41.3472 23.2197L41.3474 23.2191L41.3478 23.2182C41.5284 22.9343 41.8929 22.8559 42.1666 23.0342Z" fill="white" stroke="white" strokeWidth="0.5"/>
<path d="M11.8587 9.36784C17.8637 9.36784 22.7486 14.3451 22.7486 20.5028C22.7486 23.2466 21.7841 25.7671 20.1661 27.7134C19.9795 27.9367 19.7617 28.16 19.5439 28.3834C17.5837 30.4253 14.8768 31.6696 11.8899 31.6696H1V9.33594L11.8587 9.36784ZM4.85812 27.7134H11.8587C15.7169 27.7134 18.8594 24.4909 18.8594 20.5347C18.8594 16.5784 15.7169 13.356 11.8587 13.356H4.85812V27.7134Z" stroke="white" strokeWidth="0.5" strokeMiterlimit="10"/>
<path d="M91.0422 18.3013L100.47 31.6696H95.6781L88.1486 21.0133L82.6414 26.15V31.6696H78.7522V9.33594H82.6414V20.758L85.8462 17.7589L88.7398 15.047L94.807 9.33594H100.563L91.0422 18.3013Z" stroke="white" strokeWidth="0.5" strokeMiterlimit="10"/>
<path d="M70.2172 31.5924V26.1008C70.2172 23.4565 69.0349 22.4266 65.9994 22.4266H60.2172V31.5924H56.4624V9.25867H67.9198C71.8824 9.25867 74.6503 11.8213 74.6503 15.4904C74.6503 17.8654 73.4655 19.7045 71.4817 20.4115L69.9795 20.9475L71.4979 21.4324C73.3996 22.0399 74.0106 23.029 74.0106 25.5023V31.5924H70.2172ZM60.2185 19.5513H66.9241C69.5589 19.5513 71.071 18.2253 71.071 15.9128C71.071 13.5774 69.6248 12.2386 67.1021 12.2386H60.2185V19.5513V19.5513Z" stroke="white" strokeWidth="0.5" strokeMiterlimit="10"/>
<path d="M211.011 27.0969L201.895 8.75134L192.778 27.0969L190.787 31.085H195.143L196.544 28.2774H202.528C202.446 28.2518 202.356 28.2187 202.256 28.1702C202.131 28.1166 201.986 28.054 201.841 27.9634C201.765 27.9188 201.687 27.8715 201.606 27.8243C201.529 27.7682 201.45 27.7094 201.368 27.6507C201.28 27.5895 201.197 27.5193 201.113 27.4427C200.003 26.4281 199.419 25.0064 199.401 23.4877C199.396 23.0972 198.493 23.0449 198.232 23.0385C197.739 23.0258 197.249 23.1393 196.791 23.3206C196.65 23.3767 196.533 23.4456 196.425 23.5094C196.314 23.5694 196.221 23.6307 196.15 23.6881C196.105 23.7226 196.065 23.7506 196.032 23.7762C195.967 23.8247 195.933 23.8004 195.957 23.72C195.968 23.6792 195.983 23.6307 195.999 23.5758C196.024 23.4801 196.064 23.3678 196.12 23.2427C196.172 23.1151 196.233 22.9658 196.322 22.8177C196.365 22.7399 196.41 22.6595 196.457 22.5765C197.243 21.1804 199.006 20.3023 200.542 20.3164C201.189 20.3227 201.152 19.3299 201.128 18.8474C201.101 18.2783 200.925 17.7627 200.666 17.2649C200.607 17.1514 200.548 17.0569 200.492 16.9829C200.383 16.8298 200.32 16.7417 200.32 16.7417C200.32 16.7417 200.371 16.7583 200.461 16.7851C200.501 16.7966 200.548 16.8119 200.602 16.8285C201.722 17.1412 202.693 18.1404 203.209 19.1742C203.5 19.7574 203.683 20.4044 203.752 21.0553C203.775 21.2761 203.711 21.6487 203.866 21.821C204.507 22.5319 206.088 21.978 206.757 21.613C206.868 21.5517 206.961 21.4918 207.031 21.4343C207.077 21.4011 207.116 21.3705 207.149 21.3463C207.214 21.2978 207.248 21.3233 207.224 21.4024C207.213 21.4433 207.198 21.4918 207.182 21.5466C207.109 21.8172 207.006 22.0737 206.875 22.3149C206.312 23.3588 205.255 24.1131 204.191 24.5202C203.936 24.6172 203.673 24.6682 203.412 24.7282C203.152 24.7614 202.889 24.8086 202.639 24.8061C202.589 24.8061 202.542 24.8073 202.493 24.8073C202.414 24.8086 202.323 24.8571 202.294 24.9184C201.799 26.0172 202.106 27.3164 202.775 28.2608C202.778 28.2672 202.78 28.271 202.783 28.2774H207.243L208.644 31.085H213L211.011 27.0969Z" stroke="white" strokeWidth="0.5" strokeMiterlimit="10"/>
<path d="M201.909 22.0342L201.91 22.0344C202.179 22.209 202.268 22.575 202.109 22.8648C202.104 22.8742 202.1 22.8826 202.097 22.889C202.094 22.8937 202.092 22.8985 202.091 22.9014C201.911 23.1863 201.547 23.2655 201.271 23.0865L201.271 23.0865C201.002 22.912 200.912 22.546 201.072 22.2563C201.076 22.2479 201.08 22.2404 201.083 22.2345C201.086 22.2284 201.089 22.2227 201.09 22.2197L201.09 22.2191L201.091 22.2182C201.271 21.9343 201.636 21.8559 201.909 22.0342Z" fill="white" stroke="white" strokeWidth="0.5"/>
</svg>
